<svg width="27" height="22" viewBox="0 0 27 22" fill="none" xmlns="http://www.w3.org/2000/svg">
<path fill-rule="evenodd" clip-rule="evenodd" d="M6 8C6 7.44772 6.44772 7 7 7H20C20.5523 7 21 7.44772 21 8C21 8.55229 20.5523 9 20 9H7C6.44772 9 6 8.55229 6 8Z" fill="white"/>
<path fill-rule="evenodd" clip-rule="evenodd" d="M6 12C6 11.4477 6.44772 11 7 11H20C20.5523 11 21 11.4477 21 12C21 12.5523 20.5523 13 20 13H7C6.44772 13 6 12.5523 6 12Z" fill="white"/>
<path fill-rule="evenodd" clip-rule="evenodd" d="M1.08579 0.585787C1.46086 0.210714 1.96957 0 2.5 0H24.5C25.0304 0 25.5391 0.210714 25.9142 0.585787C26.2893 0.960861 26.5 1.46957 26.5 2V21C26.5 21.3466 26.3205 21.6684 26.0257 21.8507C25.7309 22.0329 25.3628 22.0494 25.0528 21.8944L21.5 20.118L17.9472 21.8944C17.6657 22.0352 17.3343 22.0352 17.0528 21.8944L13.5 20.118L9.94721 21.8944C9.66569 22.0352 9.33431 22.0352 9.05279 21.8944L5.5 20.118L1.94721 21.8944C1.63723 22.0494 1.26909 22.0329 0.974269 21.8507C0.679452 21.6684 0.5 21.3466 0.5 21V2C0.5 1.46957 0.710714 0.960859 1.08579 0.585787ZM24.5 2L2.5 2L2.5 19.382L5.05279 18.1056C5.33431 17.9648 5.66569 17.9648 5.94721 18.1056L9.5 19.882L13.0528 18.1056C13.3343 17.9648 13.6657 17.9648 13.9472 18.1056L17.5 19.882L21.0528 18.1056C21.3343 17.9648 21.6657 17.9648 21.9472 18.1056L24.5 19.382V2Z" fill="white"/>
</svg>
